<svg xmlns="http://www.w3.org/2000/svg" version="1.1" xmlns:xlink="http://www.w3.org/1999/xlink" xmlns:svgjs="http://svgjs.dev/svgjs" width="1000" height="143" viewBox="0 0 1000 143"><g transform="matrix(1,0,0,1,-0.6060606060606233,0.11114957048464191)"><svg viewBox="0 0 396 57" data-background-color="#0080ff" preserveAspectRatio="xMidYMid meet" height="143" width="1000" xmlns="http://www.w3.org/2000/svg" xmlns:xlink="http://www.w3.org/1999/xlink"><g id="tight-bounds" transform="matrix(1,0,0,1,0.2400000000000091,-0.0443043742491227)"><svg viewBox="0 0 395.52 57.088608748498224" height="57.088608748498224" width="395.52"><g><svg viewBox="0 0 515.1532305553974 74.35624298316642" height="57.088608748498224" width="395.52"><g transform="matrix(1,0,0,1,119.63323055539742,8.7761952184104)"><svg viewBox="0 0 395.52 56.803852546345624" height="56.803852546345624" width="395.52"><g id="textblocktransform"><svg viewBox="0 0 395.52 56.803852546345624" height="56.803852546345624" width="395.52" id="textblock"><g><svg viewBox="0 0 395.52 56.803852546345624" height="56.803852546345624" width="395.52"><g transform="matrix(1,0,0,1,0,0)"><svg width="395.52" viewBox="3.6500000953674316 -33.70000076293945 234.6300048828125 33.70000076293945" height="56.803852546345624" data-palette-color="#ffffff"><path d="M14.25 0L14.25 0 3.65 0 3.65-33.7 14.15-33.7Q21.65-33.7 26.45-29.05 31.25-24.4 31.25-17.2L31.25-17.2Q31.25-9.7 26.73-4.85 22.2 0 14.25 0ZM14.05-29.3L14.05-29.3 8.9-29.3 8.9-4.35 14.2-4.35Q19.95-4.35 22.95-7.95 25.95-11.55 25.95-17.2L25.95-17.2Q25.95-22.4 22.7-25.85 19.45-29.3 14.05-29.3ZM56.45-4.3L56.45 0 37 0 37-33.7 56.2-33.7 56.2-29.4 42.15-29.4 42.15-19 54.6-19 54.6-14.7 42.15-14.7 42.15-4.3 56.45-4.3ZM89.7-33.7L78.05 0 71.95 0 60.6-33.7 66.1-33.7 70.4-20.3Q71.8-16 72.95-12.08 74.1-8.15 74.55-6.4L74.55-6.4 75.05-4.6Q76.65-10.6 79.85-20.3L79.85-20.3 84.2-33.7 89.7-33.7ZM100.49-13.2L99.49 0 94.39 0 96.99-33.7 103.09-33.7 107.59-21.4Q108.79-18.25 109.99-14.73 111.19-11.2 111.79-9.25L111.79-9.25 112.44-7.3Q114.74-14.1 117.49-21.4L117.49-21.4 122.19-33.7 128.29-33.7 131.39 0 126.29 0 125.09-13.2 124.04-26.7Q121.79-20.35 119.14-13.2L119.14-13.2 114.44-0.65 110.39-0.65 105.84-13.2 101.29-26.5Q101.29-24.3 100.49-13.2L100.49-13.2ZM157.69-4.3L157.69 0 138.24 0 138.24-33.7 157.44-33.7 157.44-29.4 143.39-29.4 143.39-19 155.84-19 155.84-14.7 143.39-14.7 143.39-4.3 157.69-4.3ZM174.54 0L174.54 0 163.94 0 163.94-33.7 174.44-33.7Q181.94-33.7 186.74-29.05 191.54-24.4 191.54-17.2L191.54-17.2Q191.54-9.7 187.01-4.85 182.49 0 174.54 0ZM174.34-29.3L174.34-29.3 169.19-29.3 169.19-4.35 174.49-4.35Q180.24-4.35 183.24-7.95 186.24-11.55 186.24-17.2L186.24-17.2Q186.24-22.4 182.99-25.85 179.74-29.3 174.34-29.3ZM202.79-33.7L202.79 0 197.69 0 197.69-33.7 202.79-33.7ZM218.48-14.25L218.48-14.25 217.93-12.55 228.73-12.55 228.18-14.25Q226.28-20.15 225.08-24.03 223.88-27.9 223.63-28.85L223.63-28.85 223.38-29.8Q222.83-27.45 218.48-14.25ZM216.53-8.25L213.83 0 208.38 0 220.03-33.7 226.78-33.7 238.28 0 232.78 0 230.13-8.25 216.53-8.25Z" opacity="1" transform="matrix(1,0,0,1,0,0)" fill="#ffffff" class="wordmark-text-0" data-fill-palette-color="primary" id="text-0"></path></svg></g></svg></g></svg></g></svg></g><g><svg viewBox="0 0 106.22320426166633 74.35624298316642" height="74.35624298316642" width="106.22320426166633"><g><svg xmlns="http://www.w3.org/2000/svg" xmlns:xlink="http://www.w3.org/1999/xlink" version="1.1" x="0" y="0" viewBox="2 11 60 42" style="enable-background:new 0 0 64 64;" xml:space="preserve" height="74.35624298316642" width="106.22320426166633" class="icon-icon-0" data-fill-palette-color="accent" id="icon-0"><path d="M61 43h-3V13c0-1.103-0.897-2-2-2H8c-1.103 0-2 0.897-2 2v30H3c-0.552 0-1 0.448-1 1 0 4.962 4.038 9 9 9h42c4.962 0 9-4.038 9-9C62 43.448 61.552 43 61 43zM8 13h48v30h-2V16c0-0.552-0.448-1-1-1H18v2h34v26H12V17h4v-2h-5c-0.552 0-1 0.448-1 1v27H8V13zM53 51H11c-3.521 0-6.442-2.612-6.929-6h55.857C59.442 48.388 56.521 51 53 51z" fill="#ffffff" data-fill-palette-color="accent"></path><rect x="17" y="47" width="30" height="2" fill="#ffffff" data-fill-palette-color="accent"></rect><path d="M24.36 35.768l1.28-1.536L20.562 30l5.078-4.232-1.28-1.536-6 5C18.132 29.422 18 29.703 18 30s0.132 0.578 0.36 0.768L24.36 35.768z" fill="#ffffff" data-fill-palette-color="accent"></path><path d="M39.64 35.768l6-5C45.868 30.578 46 30.297 46 30s-0.132-0.578-0.36-0.768l-6-5-1.28 1.536L43.438 30l-5.078 4.232L39.64 35.768z" fill="#ffffff" data-fill-palette-color="accent"></path><rect x="24.368" y="28.5" transform="matrix(0.524 -0.8517 0.8517 0.524 -9.8939 41.2962)" width="15.264" height="2" fill="#ffffff" data-fill-palette-color="accent"></rect></svg></g></svg></g></svg></g><defs></defs></svg><rect width="395.52" height="57.088608748498224" fill="none" stroke="none" visibility="hidden"></rect></g></svg></g></svg>